<?xml version="1.0" encoding="utf-8"?>
<!-- Generator: Adobe Illustrator 22.1.0, SVG Export Plug-In . SVG Version: 6.00 Build 0)  -->
<svg version="1.1" id="Layer_1" xmlns="http://www.w3.org/2000/svg" xmlns:xlink="http://www.w3.org/1999/xlink" x="0px" y="0px"
	 viewBox="0 0 2000 2000" style="enable-background:new 0 0 2000 2000;" xml:space="preserve">
<path d="M72,700.5h1812V1237H72V700.5 M103.3,738c-4.9,7.9-2.8,17.5-3.3,26.2c0.3,6.7-1,14.2,2.6,20.2c6.5,2.5,13.6,1.3,20.4,1.5
	c3.7-0.1,9,0.2,10.3-4.2c1.7-7.6,0.4-15.5,0.8-23.2c-0.3-6.9,1.4-14.6-2.8-20.6C122,738.1,112.6,737.8,103.3,738 M284.5,737.9
	c-3.6,9.3-1.3,19.4-1.7,29.1c0.1,5.4-1,11,1,16.1c1.1,3.1,5,2.4,7.6,2.7c7.9-0.3,16.3,1.3,23.8-2c1.5-11.2,0.7-22.6,0.9-33.8
	c-0.5-3.8,0.2-8.8-3-11.6C303.5,737,294,738.4,284.5,737.9 M466.6,738.5c-3,1.7-2.3,5.8-2.7,8.7c0.1,12.3-0.4,24.6,0.5,36.8
	c8,3.2,16.8,1.6,25.2,1.8c3.7,0.4,7.7-2.3,7.6-6.3c0.2-12.5,0.3-25,0.1-37.5c-1.3-1.3-2.6-2.7-3.9-4
	C484.5,738.3,475.5,737.1,466.6,738.5 M557.6,737.9c-2.5,3-3.6,6.8-3.3,10.7c0.2,11.8-0.5,23.7,0.7,35.5c9,3,18.8,1.7,28.1,1.6
	c4,0.1,5.1-4.2,5.1-7.4c0.2-9.4-0.1-18.9,0.1-28.3c-0.1-4,0.4-9.1-3.4-11.5C575.8,737.2,566.6,738.2,557.6,737.9 M647.8,738.5
	c-2.7,1.9-2.1,5.8-2.7,8.7c-0.2,12.3-0.6,24.6,0.7,36.9c7.5,3.1,15.8,1.6,23.7,1.9c3.6,0.4,6.7-1.3,9.4-3.4
	c-0.2-14.1-0.1-28.1-0.1-42.2c-5.9-3.5-12.8-2.2-19.3-2.4C655.6,738,651.7,737.7,647.8,738.5 M922.1,738.3
	c-4.7,0.9-4.5,6.6-4.4,10.3c0.4,11.5-0.5,23.1,0.5,34.6c4.1,3.4,9.7,2.6,14.7,2.8c5.7-0.2,11.8,0.7,17.3-1.6
	c1.3-11.4,0.2-22.9,0.6-34.3c-0.3-3.9,1.2-9.5-3.3-11.6C938.9,737.6,930.4,737.5,922.1,738.3 M1009,742.8
	c-1.5,6.6-0.8,13.4-0.9,20.1c0.1,7.4-1.1,15.4,2.7,22.2c7.9,1.1,16,1.2,24,0.8c2.9,0.1,6.1-1.8,6.6-4.9c1.5-7.9,0.1-15.9,0.1-23.8
	c-0.1-4.6,0.5-9.3-0.3-13.9c-0.3-2.7-2.6-5.2-5.4-5.1c-7.3-0.5-14.7-0.6-22,0.1C1011.2,738.1,1009.4,740.5,1009,742.8 M1099.2,744.7
	c-0.5,9.8,0,19.7-0.3,29.5c0.1,3.6-0.5,8.2,3,10.5c3.7,1.9,8,1,12,1.2c5.8-0.3,11.9,0.9,17.4-1.4c2.4-9.9,0.5-20.1,0.9-30.2
	c-0.2-5.5,1.4-11.8-2.7-16.4c-7.9,0.1-15.9-0.5-23.8,0.2C1102.3,738.2,1099.2,741.3,1099.2,744.7 M1372.1,740.2
	c0.1,8.5-1.5,17-0.5,25.4c0.7,6.2-0.2,12.6,1,18.7c10,2.9,20.9,1.6,31.1,0.6c1.5-9.7,0.8-19.4,1-29.2c-0.1-6.1,0.7-12.9-3.5-17.8
	C1391.6,739,1381.1,735.6,1372.1,740.2 M1738.9,738.3c-2.2,0.3-3.5,2.6-3.6,4.7c-0.7,5.6-0.1,11.4-0.3,17
	c-0.1,6.5-1.4,13.1-0.7,19.6c0.2,2.9,2.2,6,5.4,6c7.1,0.5,14.2,0.3,21.3,0.1c2.8,0.1,6.6-1.5,6.5-4.9c0.5-12.2,0.3-24.3,0.1-36.5
	c0.3-3.3-2.2-6.5-5.6-6.3C1754.3,737.9,1746.6,737.5,1738.9,738.3 M1830.8,738.3c-2.5,0.2-4.8,2.2-5,4.8c-0.9,7-0.1,14.2-0.3,21.2
	c0.1,6.8-0.8,13.8,1.4,20.3c4.1,1.9,8.8,1.2,13.2,1.4c5.8-0.2,11.9,0.6,17.5-1.4c1.9-7.6,0.6-15.5,0.7-23.2
	c-0.1-5.7,0.7-11.3,0.2-17c-0.1-3.2-2.6-6.4-5.9-6.3C1845.4,737.7,1838,737.7,1830.8,738.3 M191.9,743.1c-0.8,8.9,0,17.9-0.3,26.8
	c0.2,4.5-0.5,9.3,1.1,13.7c2.6,2.3,6.3,2.3,9.5,2.4c7.1,0.1,14.2,0.2,21.3-0.9c1.7-7.8,0.8-15.8,1-23.7c-0.1-7.2,0.5-14.5-0.5-21.7
	c-7.9-2.7-16.4-1.4-24.6-1.5C196.1,737.9,192.1,739.3,191.9,743.1 M374,738.7c-1.6,10.3-0.6,20.8-1,31.2c0.1,4.1-0.4,8.4,0.7,12.3
	c1.2,3.3,5.2,3.7,8.2,3.7c6.6-0.1,13.2,0.4,19.8-0.4c5.1-1,4.5-7.4,4.6-11.3c-0.8-10.8,0-21.6-0.6-32.4c0.2-2.9-2.9-3.7-5.2-3.6
	C391.7,738,382.8,737.9,374,738.7 M737.9,739c-2.8,4.5-2,10.2-2.1,15.3c0.8,10.2-1.1,20.6,1.8,30.7c8.4,1,16.9,1.3,25.3,0.7
	c3.1-0.2,6.9-2.1,6.3-5.8c0.1-11.1-0.4-22.2,0.2-33.2c0.4-3.5-0.6-8.4-5.1-8.3C755.5,738.3,746.5,737.2,737.9,739 M829.8,738.9
	c-3,1.6-2.2,5.5-2.5,8.3c0.2,11.3-0.3,22.7,0.2,34c-0.3,4.1,4.3,4.9,7.4,4.7c7.9-0.2,15.9,0.8,23.6-0.9c2.5-5.1,1.3-11.1,1.4-16.5
	c-0.4-8.7,1-17.5-0.4-26.2c-0.9-4-5.6-4.3-8.9-4.2C843.7,738.3,836.6,737.3,829.8,738.9 M1190.6,738.9c-0.8,11.3,0.6,22.6-0.4,33.8
	c0.2,4-0.8,8.9,2.2,12c9.4,2.2,19.3,1.2,28.8,0.3c2-4.8,2.7-10,1.9-15.2c-1.5-8.9,1.7-17.8-0.1-26.7c-0.7-2.1-1.7-5-4.4-4.8
	C1209.3,737.8,1200,737.8,1190.6,738.9 M1282.8,739c-1.8,2.8-1.6,6.4-1.7,9.6c0,8,0.2,16.1-0.2,24.1c0.1,3.4-0.5,7.1,1.2,10.2
	c2.6,3.8,7.8,2.8,11.7,3.1c6.3-0.3,12.8,0.8,18.8-1.6c2-3,1.4-6.9,1.6-10.3c-0.3-10.4,0.2-20.8-0.2-31.1c0-3.8-4.3-5.2-7.4-4.9
	C1298.6,738.3,1290.5,737.3,1282.8,739 M1462.1,748.6c0.8,10.4-0.5,20.8,0.4,31.2c0,3.5,3.2,6.2,6.7,6c7.1,0.2,14.2,0.6,21.3-0.4
	c4.8-0.4,4.7-6.2,4.8-9.8c-0.3-12.3,0.7-24.6-0.8-36.8c-8.8-1.1-17.8-0.8-26.7-0.6C1462.2,737.8,1462.2,744.7,1462.1,748.6
	 M1553.1,748.6c0.4,11.3-0.7,22.6,1,33.8c0.2,2.9,3.5,2.9,5.7,3.3c8.4,0.5,16.8,0.5,25.1-0.5c2.4-15.3,2.4-31,0.2-46.2
	c-9.3-1.1-18.7-1.2-27.9-0.4C1552.5,739.4,1553.3,745.1,1553.1,748.6 M1644,748.6c0.6,12.2-0.5,24.4,1,36.5
	c10.5,1.1,21.2,1.4,31.6-0.5c0.7-12.5,0.2-25,0.4-37.5c0-3.2,0-7.9-4.1-8.6c-7.9-0.9-16-0.5-23.9-0.3
	C1643.5,737.9,1644,744.9,1644,748.6 M82.2,808.5c0,106.4-0.3,212.7,0.2,319.1c142.2-0.1,284.4-0.1,426.6,0
	c0.9-17.8,0.2-35.6,0.5-53.3V820.9c0-4.1-0.2-8.2-0.4-12.3c-12.1,0.3-24.3-0.4-36.4-0.2c-20.3-0.2-40.6,0.8-60.9,0.1
	c-29.7-0.2-59.5,0.8-89.2,0c-56.6,0-113.2,0-169.9,0C129.2,808.8,105.6,808.6,82.2,808.5 M535.1,808.5
	c-0.1,106.4-0.2,212.7,0.2,319.1c142.3-0.1,284.6-0.1,426.8,0c0.8-11.2,0.3-22.3,0.5-33.5c1.3-37.7,0.5-75.5,0.7-113.3
	c-1.9-36.8,0.4-73.6,0-110.4c0.1-20.6,0-41.3-1.2-61.8c-29.2-0.3-58.3-0.2-87.5-0.3c-84.5,0.1-168.9-0.3-253.4,0.3
	C592.5,807.9,563.8,808.6,535.1,808.5 M989.1,808.6c-0.8,25.8-0.1,51.6-0.3,77.4v144.4c0.2,32.3-0.4,64.5,0.3,96.8
	c76,0.5,152.1,0.1,228.1,0.2c65.1,0,130.3,0.1,195.4-0.1c4.9,0.9,4.6-4.4,4.7-7.7c-0.3-89.7,0.2-179.3-0.1-269
	c-0.4-14,0.6-28.1-0.8-42c-28.2,0.3-56.4-0.5-84.6-0.2c-72.7,0.2-145.3,0.5-218,0C1072.3,808,1030.7,808.8,989.1,808.6
	 M1443.4,808.5c-0.7,40.9,0.2,81.9-0.5,122.8c0,65.5,0,131,0.5,196.5c23.7-0.1,47.4,0,71.2,0c20.7,1.2,41.5,0.4,62.3,0.7
	c21.2-0.2,42.5,0.6,63.7-0.7c25.5,0,51,0,76.4,0c32.1,0.2,64.2-0.6,96.3,0.7c18.9,0.4,37.7-0.9,56.5-0.8c1.3-13.5,0.4-27.1,0.6-40.6
	c-0.3-92.8,0.6-185.6-0.6-278.4c-88.7,0-177.4-0.5-266.1-0.3C1550.2,808.1,1496.8,808.9,1443.4,808.5 M105.1,1155.7
	c-2.8,0.5-4,3.6-3.9,6.2c-0.1,8.3-0.3,16.7-0.5,25c0.2,4.7-0.2,9.6,1.7,14c5.7,3.3,12.8,2.2,19.1,2.5c4.3-0.1,10.7,0.1,12-5.1
	c1.2-10.2,0.2-20.4,0.6-30.7c0-4.3,0.6-10.6-4.7-11.9C121.3,1155,113.1,1154.9,105.1,1155.7 M194.7,1156c-4.4,3.4-2.9,9.7-3.2,14.5
	c0.5,10.2-1,20.6,1.1,30.6c6.9,3.4,14.9,2,22.4,2.1c3.7-0.1,9.8-0.9,9.3-5.9c0.2-13,0.2-26-0.1-39c-0.9-0.9-1.8-1.9-2.7-2.8
	C212.6,1155.5,203.5,1154.4,194.7,1156 M286.3,1155.8c-3.8,1.2-4.4,5.7-4.4,9c0,9.4-0.1,18.8,0.1,28.3c0.2,3.4,0.3,8.2,4.5,9.1
	c8.7,1.9,18,1.6,26.7-0.2c2.7-4.2,2.1-9.7,2.4-14.5c-0.3-9.7,0.7-19.5-1.1-29.1c-0.6-3.6-4.9-2.9-7.6-3.2
	C300.1,1155.3,293.1,1154.7,286.3,1155.8 M373,1163.4c0,10.4-0.2,20.9,0.1,31.3c0.3,2.9,0.3,7.1,3.8,7.9c6.8,1.4,13.9,0.8,20.8,0.7
	c3.2-0.1,8-0.6,8.3-4.6c0.9-7.5-0.7-15,0.2-22.5c0.7-7,0.8-14.1-1.5-20.8c-8.9,0.1-17.8-0.5-26.6,0.1
	C374.2,1155.8,372.7,1160.1,373,1163.4 M466.5,1156c-3.9,4.3-2.2,10.7-2.7,16c0.6,10.1-1.2,20.3,1.1,30.2
	c10.2,2.1,20.9,1.6,31.1-0.6c1.5-11.7,0.8-23.6,0.9-35.3c0.2-3.9-0.9-7.7-3.1-10.9C484.7,1155.8,475.4,1154.2,466.5,1156
	 M558.1,1155.7c-3.3,1.6-3.5,5.9-3.7,9.1c-0.4,9-0.2,18-0.2,27c0.2,3.6,0,8.8,4.1,10.4c4.7,1.6,9.8,1.2,14.8,1.3
	c4.5-0.2,9.4,0.1,13.2-2.6c1.2-3.3,0.9-7,1.1-10.4c0-10.7,1-21.5-0.8-32.1c-0.4-3-4.1-2.8-6.4-2.9
	C572.8,1155.4,565.4,1154.7,558.1,1155.7 M648.5,1155.5c-0.9,0.9-1.8,1.9-2.7,2.8c-0.4,12.1,0.3,24.3-0.7,36.4
	c0,3.1,0.6,7.8,4.6,8.1c7,0.9,14.1,0.7,21.1,0.5c3.4-0.1,8.4-1.6,7.9-5.9c0.1-11.3,0-22.7,0-34c0.3-3.4-1.3-8-5.4-7.9
	C665.1,1154.9,656.8,1155.3,648.5,1155.5 M736.5,1158.3c-0.6,4.5-0.3,9.1-0.5,13.6c-0.2,9.5-1.4,19.3,0.9,28.7
	c4.1,3.1,9.6,2.5,14.4,2.8c5.5-0.2,11.7,0.7,16.5-2.5c1.7-3.8,1.4-8,1.3-12c-0.5-10.4,0-20.9,0-31.3c-5.7-4-12.9-1.9-19.3-2.4
	C745.5,1155.5,739.7,1154.2,736.5,1158.3 M829.8,1155.7l-1.1,0.2c-2.8,6.8-0.9,14.5-1.5,21.7c0.5,7.8-1.3,16,1,23.4
	c6.1,3.9,14,2,20.9,2.2c3.7-0.5,9.9,0,10.5-4.9c1-10.6-0.3-21.4,0.4-32.1c-0.2-3.6,0.7-9.8-4.1-10.6
	C847.2,1155,838.4,1154.9,829.8,1155.7 M917.6,1162.1c-0.2,12.7,0.1,25.4-0.1,38.1c6.4,4.8,14.8,2.8,22.2,3.2
	c3.6-0.3,9.1,0.6,10.5-3.8c3.3-10.4-0.7-21.3,0.2-32c-0.3-3.9,1.2-9.4-2.9-11.9c-8.2-0.9-16.6-0.6-24.8-0.3
	C919,1155,917.3,1159,917.6,1162.1 M1012.4,1155.7c-1.9,0.2-3.1,1.9-3.4,3.7c-1.9,8.3-1,16.9-1.2,25.3c0.1,4.9-0.5,9.9,0.8,14.7
	c1.4,4.3,6.6,3.8,10.2,4c6.8-0.2,13.9,1,20.4-1.2c3-3.1,2.4-7.8,2.6-11.8c-0.2-9,0.3-18-0.2-27c-0.3-2.9-0.9-7.4-4.6-7.8
	C1028.9,1155,1020.6,1154.9,1012.4,1155.7 M1101.2,1155.5c-4.1,11.6-1.5,24.2-2.2,36.3c0.5,3.6-1.1,10.2,3.8,10.9
	c6.9,1.2,14,0.7,21,0.6c2.7-0.4,7-0.1,7.7-3.5c1.5-7.8,0.3-15.7,0.5-23.5c-0.2-5.9,0.6-12-0.5-17.8c-0.6-2.2-3-3-5-3
	C1118.1,1155,1109.6,1155.3,1101.2,1155.5 M1191.7,1155.4c-2,4.3-2.3,9-1.6,13.7c1.4,10.5-1.3,21.3,1,31.7c1.9,2.1,4.9,2.2,7.5,2.5
	c5.7,0.2,11.4,0.4,17-0.2c2.7-0.4,6.4-1.2,6.9-4.5c1.6-6.4,0.6-13,0.7-19.5c-0.3-6.1,0.6-12.3-0.3-18.3c-0.4-3-3.1-5.2-6-5.2
	C1208.5,1154.9,1200.1,1155.3,1191.7,1155.4 M1283.3,1156.2c-3.7,5.9-2.3,13.4-2.4,20c0.8,8.2-0.9,16.5,0.9,24.6
	c3.3,2.6,7.8,2.4,11.8,2.6c5.1,0,10.3,0.3,15.4-0.5c1.6-0.3,3.9-1.1,4.1-3c1.1-5.9,0.4-12,0.6-18c-0.2-8.8,1-17.9-1.7-26.4
	C1302.4,1155.7,1292.5,1154.1,1283.3,1156.2 M1376.2,1155.7c-2,0.3-4.2,1.6-4.2,3.8c-0.8,6.5,0.3,13-0.3,19.5
	c-0.6,7.2-0.9,14.5,0.9,21.6c4.9,3.7,11.5,2.5,17.2,2.8c4.4-0.3,9.6,0.4,13.1-2.7c2.3-4,1.5-8.8,1.7-13.2
	c-0.3-8.9,0.4-17.9-0.3-26.8c-0.3-3.7-4.3-5.2-7.5-5.3C1389.9,1155.1,1383,1154.9,1376.2,1155.7 M1465.4,1155.8
	c-3.7,1.6-3.2,7-3.5,10.4c0.5,9,0.2,18,0,27c0.4,3.4-0.2,9.2,4.6,9.4c8.1,1,16.6,1.3,24.7-0.1c4-1,3.7-6,3.9-9.3
	c-0.1-10.4,0.1-20.9,0-31.3c0.1-3.4-2.7-6.9-6.3-6.6C1481,1155.2,1473.1,1154.8,1465.4,1155.8 M1553.3,1160.9
	c-0.8,9.8-0.2,19.7-0.4,29.5c-0.2,4.2,0.8,8.4,2.5,12.3c9.5,0.5,19.4,1.8,28.8-0.6c2.9-3.7,2-8.7,2.2-13.1
	c-0.3-9.4,0.4-18.8-0.4-28.1c0-3.4-3.4-5.6-6.6-5.4c-7-0.3-14-0.5-20.9,0.1C1555.7,1155.6,1553.3,1158.1,1553.3,1160.9
	 M1646.5,1155.4c-0.9,1-1.8,1.9-2.7,2.9c0.1,14.1-0.9,28.3,0.5,42.3c2.9,2.3,6.7,2.5,10.2,2.7c7.4,0.2,15,0.4,22.2-1.8
	c0.7-14.4,0.5-28.8-0.1-43.2c-0.9-0.9-1.9-1.8-2.7-2.7C1664.7,1155.1,1655.6,1155.1,1646.5,1155.4 M1736.7,1155.4
	c-2.9,7-1.5,14.8-1.8,22.2c0.2,7.9-0.6,15.8,0.5,23.7c2.4,1.7,5.4,1.8,8.2,2c7.9,0.2,15.9,0.6,23.6-1.7c1.1-12.7,0-25.5,0.3-38.2
	c-0.2-2.5,0.2-5.7-2.2-7.2C1756,1153.3,1746.2,1155.6,1736.7,1155.4 M1827.8,1155.7c-4.5,3.9-3.3,10.9-3.7,16.3
	c0.3,10.3-1.2,21,3.2,30.7c8,0.7,16.1,1.1,24.1,0.5c2.3-0.3,5.8-0.6,6.4-3.5c1.7-8.7,0.3-17.6,0.5-26.3c-0.2-6,1.2-12.7-2.7-17.9
	C1846.3,1155.5,1837,1154.7,1827.8,1155.7L1827.8,1155.7z"/>
</svg>
