<?xml version="1.0" encoding="utf-8"?>
<!-- Generator: Adobe Illustrator 22.1.0, SVG Export Plug-In . SVG Version: 6.00 Build 0)  -->
<svg version="1.1" id="Layer_1" xmlns="http://www.w3.org/2000/svg" xmlns:xlink="http://www.w3.org/1999/xlink" x="0px" y="0px"
	 viewBox="0 0 2000 2000" style="enable-background:new 0 0 2000 2000;" xml:space="preserve">
<path d="M205.9,698.3c12.2-4.3,23.9-8.4,35.7-12.5c70.5-24.6,141.1-49,211.4-74.1c28.7-10.2,57-21.9,85.4-33
	c49.4-19.3,98.9-38.6,148.3-57.9c63-24.7,126-49.5,189.1-74.1c51.7-20.3,103.5-40.4,155.2-60.7c63.3-24.8,126.7-49.7,190-74.5
	c48.5-19,97-37.8,145.5-56.8c63-24.7,126-49.5,189.1-74.2c34.1-13.3,68.2-26.6,102.3-39.8c1.4-0.5,2.8-1,4.5-1.6
	c16.4,42,32.8,83.7,49.3,125.9c-2.2,0.9-4.1,2-6.1,2.5c-14.8,3.6-28.3,10.4-42.4,15.8c-25,9.6-50,19.3-75,29.1
	c-22.4,8.7-44.7,17.6-67.1,26.4c-21.1,8.2-42.2,16.3-63.3,24.5c-13,5.1-25.9,10.3-38.9,15.4c-20.3,8-40.6,15.9-60.9,23.9
	c-22.8,8.9-45.5,17.9-68.3,26.8c-26.5,10.4-53.1,20.6-79.6,31c-13.3,5.2-26.6,10.6-39.9,15.8c-22.4,8.7-44.8,17.3-67.2,26
	c-19.5,7.6-39,15.4-58.6,23.1c-8.7,3.4-17.4,6.9-26.1,10.1c-10.8,3.9-21.3,8.7-32,12.8c-26.7,10.3-53.4,20.7-80.1,31.1
	c-20.8,8.1-41.6,16.5-62.5,24.6c-20.9,8.2-41.9,16.1-62.9,24.3c-21.2,8.3-42.4,16.8-63.6,25.1c-22.9,9-45.8,17.9-68.7,26.9
	c-21.1,8.3-42.2,16.7-63.4,24.9c-25,9.8-50,19.4-75,29.1c-15.7,6.2-31.4,12.6-47.2,18.6c-3.2,1.2-2.9,2.8-1.9,4.8
	c5.6,10.8,8.5,22.4,10.2,34.2c1.1,7,1.4,14.2,2.1,21.7c436.5,0,873.2,0,1309.5,0c3.7,4.8,3.7,9.9,3.7,15.2
	c-0.2,25.5-0.4,51-0.2,76.5c0.6,81.8,1.4,163.6,2,245.4c0.6,74.3,1,148.6,1.5,222.9c0.7,97.3,1.5,194.6,2.2,291.9
	c0.3,45,0.8,90,1,135c0.1,14.3-0.2,28.6-0.5,42.9c0,2.1-0.4,4.3-1.1,6.3c-15.8,46.2-47.6,74.3-95.5,83.9c-7.6,1.5-15.6,2-23.3,2
	c-437.3,0.1-874.5,0.1-1311.8,0.1c-36.4,0-67.2-13.1-92.2-39.6c-6.6-7-13.6-13.8-19.5-21.4c-13.1-16.9-21-36.1-23.3-57.4
	c-0.7-6.6-1-13.3-1-19.9c0-278.8,0-557.6,0-836.4c0-59.5,0-119,0.2-178.5c0-5.6,1-11.2,1.7-16.8c0.5-3.5,0.4-6.8-0.8-10.3
	C219.3,736.7,212.8,717.8,205.9,698.3z M380.5,948.7c2.2,0.1,3.5,0.2,4.7,0.2c64.6,0,129.3,0,193.9,0.1c3.4,0,5-1.3,6.7-3.9
	c26.4-41,52.8-82,79.3-123c0.8-1.2,1.4-2.5,2.4-4.2c-2.5,0-4.3,0-6.1,0c-61.2,0-122.3,0-183.5,0c-3.9,0-7.6-0.1-10-4.9
	C438.6,858.5,409.7,903.3,380.5,948.7z M1030.1,818.1c-1.4-0.1-2-0.2-2.7-0.2c-65.5,0-130.9,0-196.4-0.1c-3,0-4.4,1.3-5.8,3.5
	c-26.5,41.2-53,82.3-79.5,123.4c-0.8,1.2-1.4,2.4-2.2,3.9c1.3,0.1,1.9,0.2,2.6,0.2c65.5,0,130.9,0,196.4,0.1c3,0,4.4-1.3,5.8-3.6
	c26.5-41.2,53-82.3,79.6-123.4C1028.5,820.9,1029.1,819.8,1030.1,818.1z M1675.6,948.8c28.1-43.5,56-86.9,84.3-130.6
	c-1.4-0.1-1.9-0.2-2.4-0.2c-65.6,0-131.3,0-196.9-0.1c-2.7,0-4.1,1-5.5,3.2c-26.7,41.4-53.4,82.8-80.1,124.3c-0.6,1-1.1,2.1-1.8,3.5
	C1540.8,948.8,1607.9,948.8,1675.6,948.8z M1399.3,817.9c-1.8,0-2.6,0-3.5,0c-65.1,0-130.3,0-195.4-0.1c-3.1,0-4.7,1.2-6.3,3.7
	c-26.3,40.9-52.6,81.7-79,122.6c-0.9,1.3-1.6,2.8-2.8,4.8c2.6,0,4.4,0,6.2,0c63.6,0,127.3,0,190.9,0.1c4.2,0,6.6-1.4,8.8-4.9
	c26-40.5,52.1-80.9,78.2-121.3C1397.3,821.5,1398.1,820,1399.3,817.9z M669.3,667.7c-2.2-1.6-3.5-2.7-4.8-3.6
	c-37.3-26.9-74.6-53.7-111.8-80.8c-4-2.9-7.2-3.2-11.7-1.5c-26.6,10.6-53.1,21.3-80,31.2c-33.4,12.3-67.1,23.8-100.7,35.7
	c-1.7,0.6-3.3,1.2-5.6,2.1c2.1,1.6,3.5,2.7,4.9,3.8c37.4,27,74.8,54,112.3,80.9c8.5,6.1,8.5,6.2,18.1,2.4
	c23.2-9,46.4-18.1,69.6-27.2c29.5-11.6,59-23.2,88.5-34.8C655,673.3,661.8,670.7,669.3,667.7z M1006.9,535.5c-2-1.5-3.4-2.7-4.9-3.7
	c-37.3-26.9-74.6-53.7-111.7-80.7c-4.1-3-7.3-3.1-11.8-1.3c-53.1,20.9-106.2,41.7-159.3,62.5c-7.5,2.9-15,5.9-23.3,9.2
	c3.7,2.7,6.8,4.9,9.8,7.1c35.9,25.9,71.9,51.7,107.7,77.8c3.4,2.5,6.3,2.8,10,1.2c4.3-1.8,8.6-3.5,12.9-5.2
	c24.7-9.6,49.5-19.2,74.3-28.9c16.2-6.3,32.5-12.7,48.7-19.1C974.8,548.2,990.4,542,1006.9,535.5z M1375.5,255.4
	c1.8,1.4,3,2.4,4.3,3.4c14.7,10.6,29.4,21.2,44.2,31.8c23.2,16.7,46.5,33.5,69.7,50.3c2.3,1.6,4.2,2.6,7.2,1.3
	c5.8-2.5,11.8-4.4,17.7-6.7c22.7-8.9,45.4-17.9,68.1-26.8c28.1-11,56.3-21.9,84.5-32.9c4.9-1.9,9.7-3.9,15.1-6.1
	c-1.5-1.2-2.5-2.1-3.5-2.8c-38.2-27.6-76.5-55.1-114.6-82.8c-2.8-2.1-5.1-2.1-8.2-0.9c-51.4,20.2-102.8,40.3-154.2,60.5
	C1395.7,247.4,1385.8,251.3,1375.5,255.4z M1350.7,401c-2.2-1.7-3.5-2.7-4.9-3.7c-37.3-26.9-74.6-53.7-111.7-80.7
	c-4-2.9-7.2-3.3-11.7-1.5c-56,22.1-112.1,43.9-168.2,65.9c-4.6,1.8-9.1,3.7-14.6,5.9c41.1,29.6,81.4,58.7,122.1,88
	C1224.5,450.4,1287.2,425.9,1350.7,401z M364.8,734.6c0.1-12.7-10.2-23.3-23-23.6c-12.9-0.3-23.7,10.3-23.8,23.2
	c-0.1,12.8,10.2,23.4,22.9,23.6C353.8,758,364.7,747.5,364.8,734.6z"/>
</svg>
